<?xml version="1.0" encoding="UTF-8" standalone="no"?>
<svg
   height="48"
   viewBox="0 96 960 960"
   width="48"
   version="1.1"
   id="svg1374"
   sodipodi:docname="visible.svg"
   inkscape:version="1.2.2 (1:1.2.2+202212051550+b0a8486541)"
   xmlns:inkscape="http://www.inkscape.org/namespaces/inkscape"
   xmlns:sodipodi="http://sodipodi.sourceforge.net/DTD/sodipodi-0.dtd"
   xmlns="http://www.w3.org/2000/svg"
   xmlns:svg="http://www.w3.org/2000/svg">
  <defs
     id="defs1378" />
  <sodipodi:namedview
     id="namedview1376"
     pagecolor="#ffffff"
     bordercolor="#666666"
     borderopacity="1.0"
     inkscape:showpageshadow="2"
     inkscape:pageopacity="0.0"
     inkscape:pagecheckerboard="0"
     inkscape:deskcolor="#d1d1d1"
     showgrid="false"
     inkscape:zoom="12.291667"
     inkscape:cx="17.328814"
     inkscape:cy="24"
     inkscape:window-width="1358"
     inkscape:window-height="702"
     inkscape:window-x="0"
     inkscape:window-y="0"
     inkscape:window-maximized="1"
     inkscape:current-layer="svg1374" />
  <path
     d="M480.299 697.539q58.393 0 99.816-41.722 41.424-41.722 41.424-100.116 0-58.393-41.722-99.816-41.722-41.424-100.116-41.424-58.393 0-99.817 41.722-41.423 41.722-41.423 100.116 0 58.393 41.722 99.816 41.722 41.424 100.116 41.424Zm-.67-31.847q-45.86 0-77.591-32.101-31.73-32.102-31.73-77.962 0-45.86 32.101-77.591 32.102-31.73 77.962-31.73 45.86 0 77.591 32.101 31.73 32.102 31.73 77.962 0 45.86-32.101 77.591-32.102 31.73-77.962 31.73ZM480.073 816q-123.458 0-226.573-65.384Q150.384 685.231 93.07 576.03q-2.301-4.184-3.416-9.351-1.116-5.167-1.116-10.679 0-5.512 1.116-10.679 1.115-5.167 3.416-9.351 57.314-109.201 160.357-174.586Q356.47 296 479.927 296q123.458 0 226.573 65.384 103.116 65.385 160.43 174.586 2.301 4.184 3.416 9.351 1.116 5.167 1.116 10.679 0 5.512-1.116 10.679-1.115 5.167-3.416 9.351-57.314 109.201-160.357 174.586Q603.53 816 480.073 816ZM480 556Zm-.169 229.231q117.323 0 214.977-62.039Q792.462 661.154 843.923 556q-51.461-105.154-148.947-167.192-97.485-62.039-214.807-62.039-117.323 0-214.977 62.039Q167.538 450.846 115.846 556q51.692 105.154 149.178 167.192 97.485 62.039 214.807 62.039Z"
     id="path1372"
     style="fill:#ffffff;fill-opacity:1" />
</svg>
