<?xml version="1.0" encoding="UTF-8" standalone="no"?>
<svg
   height="48"
   viewBox="0 96 960 960"
   width="48"
   version="1.1"
   id="svg4"
   sodipodi:docname="graduate.svg"
   inkscape:version="1.2.2 (1:1.2.2+202212051550+b0a8486541)"
   xmlns:inkscape="http://www.inkscape.org/namespaces/inkscape"
   xmlns:sodipodi="http://sodipodi.sourceforge.net/DTD/sodipodi-0.dtd"
   xmlns="http://www.w3.org/2000/svg"
   xmlns:svg="http://www.w3.org/2000/svg">
  <defs
     id="defs8" />
  <sodipodi:namedview
     id="namedview6"
     pagecolor="#ffffff"
     bordercolor="#666666"
     borderopacity="1.0"
     inkscape:showpageshadow="2"
     inkscape:pageopacity="0.0"
     inkscape:pagecheckerboard="0"
     inkscape:deskcolor="#d1d1d1"
     showgrid="false"
     inkscape:zoom="12.291667"
     inkscape:cx="17.328814"
     inkscape:cy="24"
     inkscape:window-width="1358"
     inkscape:window-height="702"
     inkscape:window-x="0"
     inkscape:window-y="0"
     inkscape:window-maximized="1"
     inkscape:current-layer="svg4" />
  <path
     d="M479.769 836.231q-6.533 0-13.548-1.884-7.015-1.885-13.913-5.885L263.077 725.539q-12.462-7.231-20.193-20.157-7.73-12.926-7.73-28.997V516.231L168 479.692q-6.319-3.688-9.891-10.046-3.571-6.359-4.34-13.704 0-7.609 3.956-13.778 3.956-6.168 10.275-9.856L452.278 276.25q6.686-3.048 13.657-4.957 6.972-1.909 13.834-1.909 6.863 0 13.824 2 6.962 2 12.869 5.231l316 171.154q6.462 4.231 10.462 10.71 4 6.48 4 13.983v222.077q0 6.538-4.486 10.961-4.485 4.423-11.115 4.423t-10.9-4.423q-4.269-4.423-4.269-10.961V474.077l-81.769 42.154v160.154q0 16.071-7.731 28.997-7.731 12.926-20.961 20.157L506.462 828.462q-6.13 4-13.145 5.885-7.014 1.884-13.548 1.884Zm-9.23-225.923q4.615 3.077 9.23 3.077 4.616 0 10-3.077L771.692 456 489.769 303.923q-5.384-3.077-10-3.077-4.615 0-9.23 3.077L188.308 456l282.231 154.308Zm-.77 193.077q4.616 3.077 9.616 3.077t10.384-3.077l192.308-105.462q6.154-3.077 8.846-8.461 2.692-5.385 2.692-13.077V535.308L506.462 636.385q-6.231 3.231-12.847 4.731-6.615 1.5-13.846 1.5t-13.731-1.5q-6.5-1.5-12.73-4.731L265.923 534.077v142.308q0 6.923 2.692 12.692 2.693 5.769 8.846 8.846l192.308 105.462ZM480 614.154Zm-.231 53.077Zm0 0Z"
     id="path2"
     style="fill-opacity:1;fill:#f6f6f6" />
</svg>
