<?xml version="1.0" encoding="UTF-8" standalone="no"?>
<svg
   height="48"
   viewBox="0 96 960 960"
   width="48"
   version="1.1"
   id="svg4"
   sodipodi:docname="tranquil_atmosphere.svg"
   inkscape:version="1.2.2 (1:1.2.2+202212051550+b0a8486541)"
   xmlns:inkscape="http://www.inkscape.org/namespaces/inkscape"
   xmlns:sodipodi="http://sodipodi.sourceforge.net/DTD/sodipodi-0.dtd"
   xmlns="http://www.w3.org/2000/svg"
   xmlns:svg="http://www.w3.org/2000/svg">
  <defs
     id="defs8" />
  <sodipodi:namedview
     id="namedview6"
     pagecolor="#ffffff"
     bordercolor="#666666"
     borderopacity="1.0"
     inkscape:showpageshadow="2"
     inkscape:pageopacity="0.0"
     inkscape:pagecheckerboard="0"
     inkscape:deskcolor="#d1d1d1"
     showgrid="false"
     inkscape:zoom="12.291667"
     inkscape:cx="34.983051"
     inkscape:cy="24"
     inkscape:window-width="1358"
     inkscape:window-height="702"
     inkscape:window-x="0"
     inkscape:window-y="0"
     inkscape:window-maximized="1"
     inkscape:current-layer="svg4" />
  <path
     d="M269.231 940.616q-6.539 0-10.962-4.486-4.423-4.485-4.423-11.115t4.423-10.9q4.423-4.269 10.962-4.269h195.384V711.385H360q-66.846 0-113.423-46.577T200 551.385q0-53.077 34.538-93.962 34.539-40.885 84.385-62.346 8.231-78.846 52.038-121.27Q414.769 231.384 480 231.384t109.039 42.423q43.807 42.424 52.038 121.27 50.616 19.923 84.769 61.577Q760 498.308 760 551.385q0 66.846-46.577 113.423T600 711.385H495.385v198.461h200q6.538 0 10.961 4.485 4.423 4.486 4.423 11.116t-4.423 10.899q-4.423 4.27-10.961 4.27H269.231ZM360 680.615h240q53.846 0 91.539-37.726 37.692-37.727 37.692-91.623 0-44.189-29-77.535t-70.846-49.577L612 417.005l-1.692-21.082q-7-66.077-42.337-99.923-35.337-33.846-87.971-33.846T392.029 296q-35.337 33.846-42.337 99.923L348 417.005l-23.539 10.226q-39.538 16.23-66.615 48.937-27.077 32.707-27.077 75.34 0 53.389 37.692 91.248 37.693 37.859 91.539 37.859Zm120-209.23Z"
     id="path2"
     style="fill:#ffffff;fill-opacity:1" />
</svg>
